<?xml version="1.0" standalone="no"?>
<!DOCTYPE svg PUBLIC "-//W3C//DTD SVG 20010904//EN"
 "http://www.w3.org/TR/2001/REC-SVG-20010904/DTD/svg10.dtd">
<svg version="1.0" xmlns="http://www.w3.org/2000/svg"
 width="1041.000000pt" height="1280.000000pt" viewBox="0 0 1041.000000 1280.000000"
 preserveAspectRatio="xMidYMid meet">
<metadata>
Created by potrace 1.15, written by Peter Selinger 2001-2017
</metadata>
<g transform="translate(0.000000,1280.000000) scale(0.100000,-0.100000)"
fill="#000000" stroke="none">
<path d="M1180 12580 c0 -18 -7 -20 -65 -20 l-65 0 0 -313 c0 -308 0 -313 22
-331 l21 -19 -6 -421 c-15 -935 -61 -1720 -109 -1889 -8 -25 -21 -43 -39 -53
-42 -21 -154 -108 -269 -210 -296 -260 -502 -529 -577 -754 -17 -53 -18 -199
-18 -3950 l0 -3895 22 -40 c44 -84 186 -191 357 -270 499 -232 1334 -260 1928
-65 205 67 396 171 495 268 80 78 73 -313 73 4001 0 4257 5 3907 -64 4054 -42
87 -98 175 -173 271 -83 105 -351 369 -483 474 -196 157 -178 136 -190 227
-27 220 -47 802 -56 1645 l-7 605 22 19 c21 19 21 25 21 333 l0 315 -65 -4
c-62 -3 -65 -2 -65 20 l0 22 -355 0 c-348 0 -355 0 -355 -20z"/>
<path d="M4938 12548 c-3 -21 -9 -23 -70 -26 l-68 -3 0 -304 0 -304 26 -26 26
-26 -6 -342 c-20 -1048 -62 -1783 -111 -1952 -13 -44 -21 -54 -67 -82 -72 -43
-231 -176 -361 -303 -245 -237 -415 -482 -462 -667 -13 -52 -15 -498 -13
-3948 l3 -3890 30 -45 c65 -95 250 -215 447 -290 257 -97 503 -139 851 -147
387 -9 685 30 987 129 254 83 484 227 532 333 l23 50 0 3890 0 3890 -23 65
c-95 264 -416 634 -799 919 -71 52 -71 53 -82 114 -27 162 -47 677 -62 1611
l-10 659 26 26 25 27 0 307 0 306 -67 3 c-62 3 -68 5 -71 26 l-3 22 -349 0
-349 0 -3 -22z"/>
<path d="M8640 12525 c0 -24 -2 -25 -65 -25 l-65 0 0 -308 c0 -303 0 -309 21
-328 l22 -19 -7 -450 c-10 -740 -48 -1503 -87 -1755 -19 -128 -20 -129 -117
-197 -48 -34 -135 -104 -192 -154 -346 -304 -574 -619 -609 -840 -7 -43 -9
-1337 -6 -3923 l4 -3859 22 -40 c37 -72 152 -163 299 -236 297 -149 650 -221
1090 -221 585 0 1081 137 1367 377 39 33 57 57 72 99 l21 55 0 3862 c0 4202 4
3909 -55 4042 -32 72 -116 203 -191 297 -128 160 -389 408 -566 537 -43 31
-80 63 -82 71 -34 99 -61 751 -72 1738 l-7 597 22 19 c21 19 21 25 21 328 l0
308 -65 0 c-63 0 -65 1 -65 25 l0 25 -355 0 -355 0 0 -25z"/>
</g>
</svg>
